<?xml version="1.0" encoding="UTF-8"?>
<svg xmlns="http://www.w3.org/2000/svg" xmlns:xlink="http://www.w3.org/1999/xlink" width="150px" height="89px" viewBox="0 0 100 59" version="1.1">
<g id="surface1">
<path style=" stroke:none;fill-rule:nonzero;fill:rgb(100%,100%,100%);fill-opacity:1;" d="M 0 0 L 100 0 L 100 33.863281 L 0 33.863281 Z M 0 0 "/>
<path style=" stroke:none;fill-rule:nonzero;fill:rgb(0%,0%,0%);fill-opacity:1;" d="M 79.855469 58.960938 C 79.796875 58.9375 79.796875 58.878906 79.84375 58.746094 C 79.902344 58.578125 79.929688 58.5625 80.15625 58.59375 C 80.359375 58.625 80.421875 58.601562 80.503906 58.480469 C 80.671875 58.242188 80.542969 58.078125 80.242188 58.132812 C 80.015625 58.171875 80.011719 58.171875 80.054688 57.996094 C 80.195312 57.4375 80.210938 57.46875 79.789062 57.382812 C 79.296875 57.289062 78.820312 57.007812 78.453125 56.601562 C 77.90625 55.992188 77.714844 55.375 77.769531 54.378906 C 77.796875 53.875 77.84375 53.675781 78 53.324219 C 78.488281 52.25 79.601562 51.695312 81.097656 51.796875 C 81.421875 51.820312 81.835938 51.875 82.011719 51.921875 L 82.335938 52.003906 L 82.355469 52.605469 L 82.375 53.210938 L 82.179688 53.210938 C 82.0625 53.210938 81.980469 53.171875 81.980469 53.125 C 81.980469 52.953125 81.582031 52.5625 81.300781 52.457031 C 80.9375 52.320312 80.230469 52.351562 79.878906 52.523438 C 79.070312 52.914062 78.703125 53.929688 78.945312 55.085938 C 79.0625 55.625 79.25 55.988281 79.609375 56.359375 C 79.953125 56.710938 80.296875 56.851562 80.8125 56.851562 C 81.359375 56.855469 81.742188 56.632812 81.980469 56.179688 C 82.144531 55.875 82.203125 55.835938 82.359375 55.9375 C 82.433594 55.984375 82.433594 56.089844 82.363281 56.585938 L 82.28125 57.175781 L 81.984375 57.28125 C 81.820312 57.335938 81.445312 57.398438 81.148438 57.421875 C 80.640625 57.460938 80.613281 57.46875 80.613281 57.613281 C 80.613281 57.726562 80.648438 57.765625 80.761719 57.765625 C 80.976562 57.765625 81.183594 57.9375 81.230469 58.15625 C 81.289062 58.40625 81.105469 58.785156 80.867188 58.90625 C 80.695312 59 80.027344 59.03125 79.855469 58.960938 Z M 41.171875 58.6875 C 40.609375 58.523438 40.125 58.273438 39.539062 57.84375 L 39.035156 57.476562 L 38.253906 57.4375 C 37.390625 57.390625 37.085938 57.296875 36.527344 56.882812 C 35.296875 55.976562 35.25 53.671875 36.445312 52.546875 C 37.34375 51.703125 38.921875 51.53125 40.058594 52.148438 C 41.59375 52.984375 41.757812 55.457031 40.363281 56.75 C 40.148438 56.953125 39.9375 57.117188 39.890625 57.117188 C 39.757812 57.117188 41.289062 57.953125 41.734375 58.125 C 42.226562 58.3125 42.804688 58.339844 43.226562 58.1875 C 43.53125 58.082031 43.585938 58.09375 43.640625 58.292969 C 43.667969 58.40625 43.617188 58.457031 43.304688 58.601562 C 42.8125 58.828125 41.789062 58.871094 41.171875 58.6875 Z M 39.265625 56.675781 C 40.351562 56.105469 40.5625 54.28125 39.667969 53.117188 C 38.84375 52.039062 37.394531 52.203125 36.851562 53.4375 C 36.359375 54.550781 36.917969 56.273438 37.921875 56.730469 C 38.328125 56.914062 38.84375 56.894531 39.265625 56.675781 Z M 5.09375 57.351562 C 4.796875 57.21875 4.46875 56.8125 3.949219 55.929688 C 3.15625 54.578125 3.007812 54.382812 2.78125 54.382812 L 2.589844 54.382812 L 2.59375 55.113281 C 2.59375 56.449219 2.726562 56.90625 3.148438 57.015625 C 3.261719 57.039062 3.304688 57.097656 3.304688 57.214844 L 3.304688 57.375 L 0.640625 57.375 L 0.640625 57.222656 C 0.640625 57.105469 0.6875 57.054688 0.84375 57.007812 C 0.957031 56.976562 1.109375 56.867188 1.1875 56.765625 C 1.320312 56.589844 1.320312 56.523438 1.320312 54.054688 C 1.320312 51.585938 1.320312 51.519531 1.1875 51.34375 C 1.109375 51.242188 0.957031 51.132812 0.84375 51.101562 C 0.695312 51.054688 0.640625 51 0.640625 50.898438 C 0.640625 50.757812 0.648438 50.753906 2.289062 50.710938 C 4.039062 50.664062 4.429688 50.699219 4.921875 50.9375 C 5.351562 51.148438 5.710938 51.78125 5.710938 52.335938 C 5.710938 52.964844 5.242188 53.679688 4.625 53.988281 L 4.296875 54.148438 L 5.015625 55.226562 C 5.859375 56.492188 6.125 56.828125 6.375 56.960938 C 6.605469 57.078125 6.628906 57.34375 6.410156 57.398438 C 6.148438 57.46875 5.296875 57.4375 5.09375 57.351562 Z M 3.46875 53.71875 C 4.335938 53.476562 4.632812 52.265625 3.972656 51.632812 C 3.664062 51.335938 3.335938 51.226562 2.914062 51.289062 L 2.589844 51.332031 L 2.589844 53.796875 L 2.898438 53.792969 C 3.070312 53.792969 3.324219 53.761719 3.46875 53.71875 Z M 18.445312 57.351562 C 18.09375 57.222656 17.757812 56.996094 17.578125 56.765625 C 17.253906 56.335938 17.21875 56.117188 17.21875 54.390625 C 17.210938 52.585938 17.179688 52.382812 16.847656 52.230469 C 16.714844 52.171875 16.636719 52.085938 16.636719 52.003906 C 16.632812 51.878906 16.679688 51.875 17.742188 51.875 C 18.84375 51.875 18.84375 51.875 18.84375 52.019531 C 18.84375 52.117188 18.804688 52.164062 18.726562 52.164062 C 18.664062 52.164062 18.539062 52.242188 18.453125 52.335938 L 18.292969 52.5 L 18.292969 54.273438 C 18.292969 55.9375 18.300781 56.054688 18.429688 56.296875 C 18.625 56.679688 19.023438 56.871094 19.53125 56.84375 C 20.078125 56.808594 20.375 56.613281 20.59375 56.144531 C 20.757812 55.78125 20.761719 55.765625 20.761719 54.179688 C 20.765625 52.765625 20.75 52.5625 20.648438 52.40625 C 20.585938 52.3125 20.460938 52.214844 20.375 52.195312 C 20.273438 52.167969 20.210938 52.105469 20.210938 52.03125 C 20.210938 51.914062 20.273438 51.90625 21.085938 51.90625 C 21.90625 51.90625 21.96875 51.914062 21.96875 52.03125 C 21.96875 52.105469 21.90625 52.167969 21.804688 52.191406 C 21.507812 52.265625 21.484375 52.40625 21.445312 54.289062 L 21.414062 56.050781 L 21.21875 56.433594 C 20.984375 56.882812 20.613281 57.199219 20.132812 57.34375 C 19.726562 57.460938 18.773438 57.46875 18.445312 57.351562 Z M 43.804688 57.351562 C 43.445312 57.222656 43.113281 56.996094 42.929688 56.753906 C 42.621094 56.351562 42.578125 56.054688 42.574219 54.351562 C 42.570312 52.585938 42.535156 52.382812 42.203125 52.230469 C 42.070312 52.171875 41.992188 52.085938 41.992188 52.003906 C 41.992188 51.878906 42.035156 51.875 43.097656 51.875 C 44.191406 51.875 44.203125 51.875 44.203125 52.015625 C 44.203125 52.109375 44.15625 52.164062 44.0625 52.179688 C 43.984375 52.1875 43.859375 52.28125 43.789062 52.382812 C 43.65625 52.554688 43.648438 52.664062 43.628906 54.089844 C 43.601562 55.84375 43.652344 56.210938 43.949219 56.515625 C 44.484375 57.066406 45.601562 56.914062 45.917969 56.242188 C 46.117188 55.824219 46.167969 55.296875 46.140625 53.921875 C 46.117188 52.460938 46.074219 52.28125 45.730469 52.195312 C 45.628906 52.167969 45.570312 52.105469 45.570312 52.03125 C 45.570312 51.914062 45.628906 51.90625 46.445312 51.90625 C 47.261719 51.90625 47.324219 51.914062 47.324219 52.027344 C 47.324219 52.101562 47.25 52.179688 47.132812 52.226562 C 47.03125 52.273438 46.921875 52.359375 46.894531 52.414062 C 46.867188 52.476562 46.828125 53.320312 46.808594 54.289062 L 46.773438 56.050781 L 46.578125 56.433594 C 46.34375 56.882812 45.96875 57.199219 45.488281 57.34375 C 45.082031 57.460938 44.132812 57.46875 43.804688 57.351562 Z M 64.386719 57.347656 C 64.125 57.234375 63.816406 56.851562 63.335938 56.039062 C 62.71875 54.996094 62.648438 54.902344 62.492188 54.902344 C 62.34375 54.898438 62.34375 54.914062 62.34375 55.71875 C 62.34375 56.691406 62.425781 56.964844 62.730469 57.027344 C 62.882812 57.058594 62.929688 57.101562 62.929688 57.21875 L 62.929688 57.375 L 60.71875 57.375 L 60.71875 57.21875 C 60.71875 57.101562 60.761719 57.058594 60.914062 57.027344 C 61.289062 56.953125 61.3125 56.773438 61.289062 54.507812 L 61.273438 52.5 L 61.113281 52.335938 C 61.027344 52.242188 60.902344 52.164062 60.835938 52.164062 C 60.765625 52.164062 60.71875 52.117188 60.71875 52.039062 C 60.71875 51.933594 60.785156 51.910156 61.195312 51.871094 C 61.457031 51.847656 62.179688 51.835938 62.804688 51.851562 C 63.816406 51.875 63.964844 51.890625 64.207031 52.019531 C 64.640625 52.25 64.878906 52.691406 64.878906 53.25 C 64.878906 53.785156 64.574219 54.253906 64.019531 54.570312 C 63.84375 54.671875 63.726562 54.773438 63.765625 54.796875 C 63.804688 54.820312 64.089844 55.226562 64.40625 55.703125 C 65.019531 56.632812 65.363281 57.050781 65.503906 57.050781 C 65.632812 57.050781 65.617188 57.351562 65.492188 57.402344 C 65.304688 57.472656 64.59375 57.4375 64.386719 57.347656 Z M 63.183594 54.285156 C 63.445312 54.148438 63.695312 53.828125 63.742188 53.574219 C 63.804688 53.25 63.664062 52.816406 63.414062 52.582031 C 63.183594 52.367188 62.960938 52.304688 62.578125 52.347656 L 62.34375 52.375 L 62.34375 54.382812 L 62.671875 54.382812 C 62.851562 54.382812 63.085938 54.335938 63.183594 54.285156 Z M 92.125 57.335938 C 91.929688 57.285156 91.757812 57.230469 91.746094 57.214844 C 91.734375 57.203125 91.683594 56.910156 91.640625 56.566406 L 91.5625 55.945312 L 91.742188 55.945312 C 91.84375 55.945312 91.929688 55.96875 91.929688 56 C 91.929688 56.164062 92.351562 56.664062 92.601562 56.785156 C 93.269531 57.109375 94.074219 56.804688 94.070312 56.226562 C 94.070312 55.847656 93.890625 55.621094 93.261719 55.226562 C 92.382812 54.675781 92.042969 54.382812 91.867188 54.03125 C 91.695312 53.679688 91.664062 53.128906 91.796875 52.726562 C 91.882812 52.464844 92.289062 52.070312 92.632812 51.917969 C 92.980469 51.765625 94.0625 51.769531 94.511719 51.929688 L 94.851562 52.046875 L 94.851562 53.210938 L 94.664062 53.210938 C 94.519531 53.210938 94.46875 53.171875 94.4375 53.046875 C 94.367188 52.773438 94.019531 52.4375 93.726562 52.355469 C 92.945312 52.148438 92.320312 52.945312 92.8125 53.53125 C 92.90625 53.640625 93.328125 53.96875 93.757812 54.257812 C 94.578125 54.816406 94.882812 55.121094 94.984375 55.484375 C 95.210938 56.296875 94.835938 57.007812 94.03125 57.308594 C 93.601562 57.46875 92.671875 57.484375 92.125 57.335938 Z M 6.945312 57.203125 C 6.945312 57.085938 6.984375 57.050781 7.105469 57.050781 C 7.195312 57.050781 7.320312 56.980469 7.398438 56.878906 C 7.527344 56.710938 7.53125 56.632812 7.53125 54.660156 C 7.53125 53.226562 7.507812 52.570312 7.457031 52.46875 C 7.359375 52.289062 7.203125 52.171875 7.0625 52.167969 C 6.984375 52.164062 6.945312 52.113281 6.945312 52.003906 L 6.945312 51.839844 L 10.847656 51.839844 L 10.847656 53.21875 L 10.679688 53.195312 C 10.546875 53.179688 10.488281 53.121094 10.433594 52.953125 C 10.304688 52.5625 10.09375 52.464844 9.320312 52.4375 L 8.636719 52.414062 L 8.636719 54.265625 L 9.160156 54.234375 C 9.730469 54.203125 10.015625 54.0625 10.054688 53.804688 C 10.070312 53.703125 10.125 53.664062 10.25 53.664062 L 10.425781 53.664062 L 10.425781 55.359375 L 10.246094 55.359375 C 10.101562 55.359375 10.070312 55.328125 10.070312 55.203125 C 10.070312 54.914062 9.851562 54.804688 9.21875 54.78125 L 8.636719 54.757812 L 8.636719 55.671875 C 8.636719 56.773438 8.648438 56.789062 9.390625 56.789062 C 10.125 56.789062 10.503906 56.601562 10.695312 56.15625 C 10.789062 55.929688 11.015625 55.863281 11.085938 56.042969 C 11.132812 56.160156 10.945312 56.925781 10.8125 57.191406 L 10.710938 57.382812 L 6.945312 57.351562 Z M 11.953125 57.21875 C 11.953125 57.101562 12 57.058594 12.144531 57.027344 C 12.488281 56.960938 12.503906 56.863281 12.527344 54.773438 C 12.546875 52.59375 12.523438 52.398438 12.164062 52.230469 C 12.015625 52.164062 11.953125 52.085938 11.953125 51.980469 L 11.953125 51.828125 L 13.433594 51.855469 C 15.03125 51.882812 15.164062 51.910156 15.59375 52.273438 C 16.070312 52.675781 16.195312 53.476562 15.875 54.070312 C 15.59375 54.585938 15.105469 54.859375 14.328125 54.941406 L 13.921875 54.984375 L 13.824219 54.730469 L 13.722656 54.476562 L 13.960938 54.445312 C 14.265625 54.398438 14.601562 54.203125 14.773438 53.96875 C 14.875 53.835938 14.910156 53.695312 14.90625 53.445312 C 14.898438 52.8125 14.542969 52.425781 13.921875 52.375 L 13.570312 52.34375 L 13.59375 54.515625 C 13.613281 56.890625 13.625 56.953125 13.984375 57.03125 C 14.117188 57.054688 14.164062 57.105469 14.164062 57.21875 L 14.164062 57.375 L 11.953125 57.375 Z M 22.746094 57.195312 C 22.746094 57.09375 22.785156 57.050781 22.867188 57.050781 C 22.9375 57.050781 23.0625 56.992188 23.148438 56.925781 L 23.296875 56.800781 L 23.320312 54.78125 C 23.34375 52.523438 23.316406 52.351562 22.945312 52.210938 C 22.828125 52.167969 22.746094 52.089844 22.746094 52.023438 C 22.746094 51.914062 22.835938 51.90625 23.738281 51.890625 C 25.636719 51.859375 26.03125 51.878906 26.34375 52.03125 C 26.742188 52.222656 26.929688 52.503906 26.960938 52.960938 C 26.976562 53.164062 26.96875 53.40625 26.945312 53.492188 C 26.882812 53.75 26.582031 54.0625 26.246094 54.21875 L 25.9375 54.359375 L 26.199219 54.4375 C 26.828125 54.625 27.226562 55.28125 27.140625 55.992188 C 27.070312 56.585938 26.816406 56.921875 26.226562 57.195312 C 25.914062 57.335938 25.832031 57.34375 24.324219 57.34375 L 22.746094 57.34375 Z M 25.617188 56.707031 C 25.945312 56.484375 26.078125 56.183594 26.039062 55.726562 C 25.984375 55.046875 25.507812 54.640625 24.757812 54.640625 L 24.363281 54.640625 L 24.382812 55.625 C 24.40625 56.5625 24.414062 56.609375 24.558594 56.730469 C 24.78125 56.914062 25.328125 56.898438 25.617188 56.707031 Z M 25.34375 54 C 25.742188 53.847656 25.953125 53.535156 25.914062 53.15625 C 25.859375 52.644531 25.445312 52.359375 24.765625 52.359375 L 24.375 52.359375 L 24.375 54.117188 L 24.710938 54.117188 C 24.902344 54.113281 25.1875 54.0625 25.34375 54 Z M 28.015625 57.203125 C 28.015625 57.09375 28.058594 57.054688 28.1875 57.039062 C 28.28125 57.027344 28.417969 56.9375 28.492188 56.835938 C 28.625 56.65625 28.632812 56.578125 28.632812 54.652344 C 28.632812 53.050781 28.613281 52.625 28.539062 52.492188 C 28.421875 52.289062 28.273438 52.171875 28.125 52.167969 C 28.054688 52.164062 28.015625 52.117188 28.015625 52.019531 C 28.015625 51.875 28.015625 51.875 29.183594 51.875 C 30.351562 51.875 30.351562 51.875 30.351562 52.019531 C 30.351562 52.121094 30.3125 52.164062 30.226562 52.164062 C 30.15625 52.164062 30.019531 52.234375 29.917969 52.320312 L 29.734375 52.480469 L 29.71875 54.53125 L 29.699219 56.585938 L 29.867188 56.695312 C 29.996094 56.78125 30.136719 56.800781 30.539062 56.777344 C 31.160156 56.742188 31.449219 56.585938 31.621094 56.203125 C 31.734375 55.949219 31.859375 55.890625 32.03125 56 C 32.09375 56.039062 32.082031 56.15625 31.980469 56.5625 C 31.90625 56.84375 31.804688 57.140625 31.75 57.226562 L 31.648438 57.382812 L 29.828125 57.363281 L 28.015625 57.34375 Z M 32.5625 57.21875 C 32.5625 57.101562 32.609375 57.058594 32.761719 57.027344 C 33.121094 56.953125 33.148438 56.777344 33.148438 54.59375 C 33.148438 52.78125 33.140625 52.640625 33.023438 52.445312 C 32.953125 52.328125 32.820312 52.21875 32.726562 52.195312 C 32.617188 52.164062 32.5625 52.109375 32.5625 52.011719 C 32.5625 51.875 32.585938 51.875 33.671875 51.875 C 34.757812 51.875 34.773438 51.875 34.773438 52.011719 C 34.773438 52.109375 34.722656 52.164062 34.613281 52.195312 C 34.523438 52.214844 34.398438 52.3125 34.335938 52.40625 C 34.234375 52.566406 34.222656 52.78125 34.222656 54.570312 C 34.222656 56.78125 34.25 56.960938 34.589844 57.03125 C 34.730469 57.058594 34.773438 57.101562 34.773438 57.21875 L 34.773438 57.375 L 32.5625 57.375 Z M 48.101562 57.210938 C 48.101562 57.101562 48.15625 57.054688 48.304688 57.027344 C 48.664062 56.953125 48.6875 56.777344 48.6875 54.585938 C 48.6875 52.667969 48.6875 52.640625 48.539062 52.421875 C 48.460938 52.296875 48.328125 52.1875 48.25 52.179688 C 48.144531 52.164062 48.101562 52.113281 48.101562 52 L 48.101562 51.839844 L 51.941406 51.839844 L 51.941406 52.523438 C 51.941406 53.203125 51.9375 53.210938 51.785156 53.210938 C 51.660156 53.210938 51.621094 53.164062 51.585938 52.984375 C 51.515625 52.59375 51.25 52.464844 50.472656 52.4375 L 49.8125 52.414062 L 49.773438 52.722656 C 49.75 52.890625 49.730469 53.308594 49.730469 53.648438 L 49.730469 54.265625 L 50.28125 54.234375 C 50.890625 54.195312 51.132812 54.085938 51.199219 53.828125 C 51.226562 53.710938 51.28125 53.664062 51.394531 53.664062 L 51.550781 53.664062 L 51.550781 55.359375 L 51.390625 55.359375 C 51.277344 55.359375 51.226562 55.320312 51.222656 55.242188 C 51.21875 54.921875 50.90625 54.773438 50.25 54.773438 L 49.71875 54.773438 L 49.742188 55.6875 C 49.765625 56.796875 49.757812 56.789062 50.539062 56.789062 C 51.230469 56.789062 51.585938 56.625 51.773438 56.21875 C 51.871094 56.015625 51.945312 55.945312 52.046875 55.945312 C 52.128906 55.945312 52.210938 55.976562 52.234375 56.015625 C 52.296875 56.109375 52.007812 57.171875 51.890625 57.289062 C 51.8125 57.367188 51.484375 57.375 49.953125 57.367188 L 48.101562 57.351562 Z M 55.257812 57.226562 C 55.257812 57.117188 55.316406 57.046875 55.460938 56.980469 C 55.578125 56.929688 55.730469 56.804688 55.804688 56.703125 C 55.9375 56.523438 55.9375 56.445312 55.9375 54.066406 C 55.9375 51.304688 55.933594 51.273438 55.484375 51.125 C 55.304688 51.066406 55.257812 51.015625 55.257812 50.890625 L 55.257812 50.734375 L 59.808594 50.734375 L 59.808594 52.359375 L 59.613281 52.359375 C 59.453125 52.359375 59.417969 52.335938 59.417969 52.214844 C 59.417969 51.976562 59.171875 51.644531 58.914062 51.53125 C 58.757812 51.46875 58.402344 51.417969 57.9375 51.398438 L 57.207031 51.367188 L 57.207031 53.601562 L 57.742188 53.59375 C 58.460938 53.589844 58.703125 53.5 58.851562 53.191406 C 58.953125 52.992188 59.007812 52.945312 59.164062 52.945312 L 59.351562 52.945312 L 59.351562 54.910156 L 59.144531 54.890625 C 59 54.875 58.921875 54.828125 58.898438 54.738281 C 58.796875 54.355469 58.398438 54.1875 57.609375 54.1875 L 57.195312 54.1875 L 57.21875 55.339844 C 57.25 56.660156 57.304688 56.851562 57.695312 56.992188 C 57.867188 57.054688 57.921875 57.113281 57.921875 57.226562 L 57.921875 57.375 L 55.257812 57.375 Z M 65.660156 57.210938 C 65.660156 57.09375 65.695312 57.050781 65.789062 57.050781 C 65.988281 57.050781 66.214844 56.644531 66.710938 55.40625 C 67.375 53.75 68 52.0625 68 51.945312 C 68 51.863281 68.070312 51.839844 68.308594 51.84375 L 68.617188 51.84375 L 69.492188 54.09375 C 70.445312 56.539062 70.625 56.921875 70.84375 57.015625 C 70.9375 57.054688 70.992188 57.140625 70.992188 57.226562 C 70.992188 57.375 70.992188 57.375 69.886719 57.375 L 68.78125 57.375 L 68.78125 57.21875 C 68.78125 57.101562 68.824219 57.058594 68.976562 57.027344 C 69.253906 56.972656 69.269531 56.78125 69.054688 56.140625 L 68.867188 55.585938 L 67.328125 55.585938 L 67.175781 56.039062 C 66.980469 56.617188 66.992188 57.007812 67.203125 57.039062 C 67.3125 57.054688 67.351562 57.101562 67.351562 57.21875 L 67.351562 57.375 L 65.660156 57.375 Z M 68.648438 54.933594 C 68.648438 54.835938 68.171875 53.53125 68.136719 53.53125 C 68.113281 53.53125 68.046875 53.65625 67.988281 53.8125 C 67.929688 53.960938 67.8125 54.285156 67.71875 54.527344 L 67.550781 54.96875 L 68.101562 54.96875 C 68.402344 54.96875 68.648438 54.953125 68.648438 54.933594 Z M 71.445312 57.21875 C 71.445312 57.105469 71.492188 57.054688 71.625 57.03125 C 71.976562 56.957031 71.992188 56.867188 72.019531 54.734375 C 72.046875 52.539062 72.023438 52.355469 71.640625 52.210938 C 71.523438 52.167969 71.445312 52.089844 71.445312 52.023438 C 71.445312 51.917969 71.519531 51.90625 72.179688 51.90625 L 72.910156 51.90625 L 73.332031 52.441406 C 73.5625 52.734375 74.164062 53.460938 74.664062 54.054688 C 75.164062 54.648438 75.640625 55.21875 75.726562 55.328125 L 75.875 55.519531 L 75.851562 54.046875 C 75.828125 52.445312 75.792969 52.28125 75.445312 52.195312 C 75.34375 52.167969 75.28125 52.105469 75.28125 52.03125 C 75.28125 51.914062 75.34375 51.90625 76.160156 51.90625 C 76.984375 51.90625 77.039062 51.914062 77.039062 52.03125 C 77.039062 52.109375 76.984375 52.164062 76.898438 52.179688 C 76.820312 52.1875 76.695312 52.28125 76.621094 52.382812 C 76.492188 52.5625 76.484375 52.648438 76.464844 54.96875 L 76.445312 57.375 L 76.164062 57.375 C 75.90625 57.375 75.859375 57.351562 75.664062 57.101562 C 75.492188 56.875 72.734375 53.460938 72.632812 53.335938 C 72.617188 53.320312 72.617188 54.039062 72.632812 54.933594 C 72.664062 56.75 72.703125 56.96875 73.015625 57.03125 C 73.15625 57.058594 73.203125 57.101562 73.203125 57.21875 L 73.203125 57.375 L 71.445312 57.375 Z M 82.824219 57.210938 C 82.824219 57.117188 82.859375 57.050781 82.914062 57.050781 C 83.046875 57.050781 83.285156 56.742188 83.460938 56.363281 C 83.695312 55.835938 84.8125 52.957031 85 52.375 L 85.179688 51.835938 L 85.757812 51.875 L 86.625 54.085938 C 87.097656 55.304688 87.539062 56.40625 87.601562 56.53125 C 87.746094 56.8125 87.957031 57.050781 88.070312 57.050781 C 88.117188 57.050781 88.15625 57.121094 88.15625 57.210938 L 88.15625 57.375 L 85.945312 57.375 L 85.945312 57.210938 C 85.945312 57.101562 85.980469 57.050781 86.0625 57.050781 C 86.375 57.050781 86.40625 56.773438 86.167969 56.054688 L 86 55.554688 L 84.476562 55.554688 L 84.335938 55.992188 C 84.074219 56.820312 84.085938 57.050781 84.390625 57.050781 C 84.480469 57.050781 84.515625 57.097656 84.515625 57.210938 L 84.515625 57.375 L 82.824219 57.375 Z M 85.585938 54.296875 C 85.460938 53.929688 85.34375 53.585938 85.320312 53.53125 C 85.296875 53.476562 85.167969 53.726562 85 54.152344 C 84.84375 54.546875 84.710938 54.890625 84.710938 54.917969 C 84.710938 54.945312 84.957031 54.96875 85.257812 54.96875 L 85.804688 54.96875 Z M 88.546875 57.210938 C 88.546875 57.085938 88.578125 57.050781 88.699219 57.050781 C 88.78125 57.050781 88.90625 56.988281 88.976562 56.914062 C 89.089844 56.785156 89.101562 56.636719 89.117188 54.75 C 89.128906 53.632812 89.121094 52.65625 89.101562 52.574219 C 89.054688 52.390625 88.816406 52.164062 88.664062 52.164062 C 88.585938 52.164062 88.546875 52.117188 88.546875 52.019531 C 88.546875 51.875 88.546875 51.875 89.652344 51.875 C 90.714844 51.875 90.757812 51.878906 90.757812 52.003906 C 90.757812 52.085938 90.6875 52.164062 90.570312 52.21875 C 90.464844 52.265625 90.351562 52.382812 90.3125 52.476562 C 90.21875 52.726562 90.164062 54.757812 90.226562 55.859375 C 90.265625 56.625 90.296875 56.804688 90.398438 56.914062 C 90.460938 56.992188 90.570312 57.050781 90.636719 57.050781 C 90.722656 57.050781 90.757812 57.097656 90.757812 57.210938 L 90.757812 57.375 L 88.546875 57.375 Z M 95.828125 57.203125 C 95.828125 57.085938 95.867188 57.050781 95.984375 57.050781 C 96.078125 57.050781 96.199219 56.980469 96.28125 56.878906 C 96.40625 56.710938 96.414062 56.632812 96.414062 54.660156 C 96.414062 53.226562 96.390625 52.570312 96.335938 52.46875 C 96.242188 52.289062 96.085938 52.171875 95.945312 52.167969 C 95.867188 52.164062 95.828125 52.113281 95.828125 52.003906 L 95.828125 51.839844 L 99.730469 51.839844 L 99.730469 53.21875 L 99.558594 53.195312 C 99.429688 53.179688 99.371094 53.121094 99.3125 52.953125 C 99.1875 52.5625 98.972656 52.464844 98.199219 52.4375 L 97.519531 52.414062 L 97.519531 54.25 L 97.925781 54.246094 C 98.492188 54.242188 98.765625 54.132812 98.882812 53.875 C 98.957031 53.722656 99.023438 53.664062 99.144531 53.664062 L 99.304688 53.664062 L 99.304688 55.359375 L 99.128906 55.359375 C 98.984375 55.359375 98.949219 55.328125 98.949219 55.203125 C 98.949219 54.914062 98.734375 54.804688 98.097656 54.78125 L 97.519531 54.757812 L 97.519531 55.671875 C 97.519531 56.773438 97.53125 56.789062 98.273438 56.789062 C 99.003906 56.789062 99.382812 56.601562 99.578125 56.15625 C 99.671875 55.929688 99.898438 55.863281 99.96875 56.042969 C 100.011719 56.160156 99.828125 56.925781 99.691406 57.191406 L 99.59375 57.382812 L 95.828125 57.351562 Z M 8.707031 51.257812 L 8.546875 51.136719 L 8.933594 50.546875 C 9.148438 50.21875 9.359375 49.953125 9.414062 49.953125 C 9.632812 49.953125 10.332031 50.101562 10.3125 50.148438 C 10.28125 50.238281 8.996094 51.382812 8.929688 51.382812 C 8.894531 51.382812 8.792969 51.328125 8.707031 51.257812 Z M 0.445312 46.761719 L 99.46875 46.761719 L 99.46875 47.347656 L 0.445312 47.347656 Z M 38.132812 45.429688 C 37.613281 45.242188 37.320312 44.757812 37.414062 44.234375 C 37.476562 43.886719 37.679688 43.640625 38.027344 43.476562 L 38.335938 43.335938 L 38.148438 43.226562 C 38.042969 43.164062 37.960938 43.0625 37.960938 42.992188 C 37.960938 42.875 38.4375 42.398438 38.554688 42.398438 C 38.585938 42.398438 38.542969 42.289062 38.464844 42.15625 C 38.132812 41.59375 38.398438 40.773438 39.019531 40.453125 C 39.359375 40.28125 39.46875 40.273438 40.648438 40.351562 C 41.328125 40.390625 41.351562 40.398438 41.316406 40.53125 C 41.296875 40.609375 41.28125 40.695312 41.277344 40.71875 C 41.277344 40.75 41.164062 40.769531 41.023438 40.769531 L 40.769531 40.769531 L 40.804688 41.148438 C 40.878906 41.976562 40.292969 42.539062 39.34375 42.554688 C 38.851562 42.5625 38.617188 42.667969 38.804688 42.789062 C 38.859375 42.828125 39.179688 42.945312 39.515625 43.050781 C 40.589844 43.398438 40.789062 43.578125 40.742188 44.136719 C 40.695312 44.71875 40.226562 45.226562 39.550781 45.429688 C 39.164062 45.546875 38.460938 45.546875 38.132812 45.429688 Z M 39.578125 45.023438 C 40.109375 44.765625 40.335938 44.261719 40.046875 44 C 39.851562 43.820312 39.007812 43.554688 38.789062 43.59375 C 38.34375 43.6875 37.929688 44.226562 38.007812 44.625 C 38.109375 45.164062 38.902344 45.367188 39.578125 45.023438 Z M 39.753906 42.078125 C 40.148438 41.835938 40.304688 41.148438 40.039062 40.8125 C 39.671875 40.34375 38.976562 40.867188 38.96875 41.605469 C 38.96875 41.835938 39 41.917969 39.152344 42.046875 C 39.371094 42.234375 39.492188 42.242188 39.753906 42.078125 Z M 42.21875 43.59375 C 41.933594 43.53125 41.78125 43.34375 41.75 43 C 41.664062 42.136719 42.394531 40.867188 43.210938 40.453125 C 43.632812 40.242188 44.46875 40.21875 45.023438 40.410156 C 45.074219 40.425781 45.039062 40.648438 44.90625 41.109375 C 44.65625 42 44.515625 42.898438 44.59375 43.054688 C 44.648438 43.15625 44.6875 43.164062 44.859375 43.101562 C 45.019531 43.046875 45.074219 43.050781 45.117188 43.121094 C 45.210938 43.269531 45.15625 43.328125 44.785156 43.453125 C 44.285156 43.625 44.054688 43.59375 43.980469 43.335938 L 43.921875 43.132812 L 43.65625 43.28125 C 43.207031 43.535156 42.59375 43.664062 42.21875 43.59375 Z M 43.34375 43.007812 C 43.53125 42.914062 43.730469 42.777344 43.78125 42.695312 C 43.867188 42.5625 44.132812 41.585938 44.238281 41.019531 C 44.28125 40.785156 44.273438 40.777344 44.039062 40.710938 C 43.601562 40.59375 43.164062 40.910156 42.8125 41.601562 C 42.445312 42.328125 42.351562 42.976562 42.59375 43.140625 C 42.753906 43.257812 42.851562 43.238281 43.34375 43.007812 Z M 74.128906 43.570312 C 73.835938 43.5 73.734375 43.398438 73.65625 43.101562 C 73.53125 42.65625 73.8125 41.804688 74.289062 41.171875 C 74.859375 40.421875 75.492188 40.164062 76.429688 40.3125 C 76.671875 40.351562 76.894531 40.40625 76.917969 40.429688 C 76.941406 40.457031 76.859375 40.875 76.734375 41.355469 C 76.609375 41.839844 76.503906 42.425781 76.5 42.65625 L 76.484375 43.082031 L 76.761719 43.070312 C 77.007812 43.058594 77.039062 43.070312 77.039062 43.203125 C 77.039062 43.328125 76.976562 43.375 76.664062 43.46875 C 76.148438 43.625 75.90625 43.59375 75.878906 43.359375 C 75.867188 43.257812 75.847656 43.179688 75.832031 43.179688 C 75.820312 43.179688 75.648438 43.25 75.453125 43.335938 C 75.144531 43.472656 74.507812 43.648438 74.382812 43.628906 C 74.359375 43.625 74.242188 43.601562 74.128906 43.570312 Z M 75.21875 43.015625 C 75.378906 42.933594 75.554688 42.8125 75.617188 42.746094 C 75.757812 42.582031 76.015625 41.734375 76.148438 40.984375 C 76.1875 40.78125 76.175781 40.769531 75.929688 40.703125 C 75.71875 40.648438 75.628906 40.65625 75.445312 40.742188 C 75.03125 40.9375 74.621094 41.601562 74.40625 42.421875 C 74.203125 43.210938 74.460938 43.394531 75.21875 43.015625 Z M 4.703125 43.421875 C 4.683594 43.34375 4.800781 42.734375 4.960938 42.078125 C 5.28125 40.777344 5.273438 40.671875 4.929688 40.773438 C 4.757812 40.820312 4.734375 40.8125 4.734375 40.679688 C 4.734375 40.554688 4.796875 40.511719 5.109375 40.421875 C 5.316406 40.359375 5.585938 40.304688 5.710938 40.296875 C 5.925781 40.28125 5.941406 40.296875 5.960938 40.5 C 5.96875 40.617188 5.859375 41.214844 5.710938 41.820312 C 5.5625 42.429688 5.460938 42.972656 5.476562 43.027344 C 5.507812 43.109375 5.578125 43.117188 5.8125 43.085938 C 6.097656 43.039062 6.109375 43.046875 6.089844 43.1875 C 6.074219 43.304688 5.992188 43.359375 5.710938 43.449219 C 5.515625 43.511719 5.214844 43.5625 5.046875 43.566406 C 4.78125 43.570312 4.734375 43.550781 4.703125 43.421875 Z M 7.203125 43.449219 L 7.054688 43.328125 L 7.558594 41.113281 C 7.835938 39.894531 8.054688 38.8125 8.039062 38.710938 C 8.019531 38.515625 7.996094 38.507812 7.742188 38.585938 C 7.617188 38.625 7.597656 38.605469 7.597656 38.464844 C 7.597656 38.273438 7.828125 38.183594 8.460938 38.117188 C 8.820312 38.082031 8.832031 38.085938 8.832031 38.242188 C 8.832031 38.328125 8.730469 38.859375 8.605469 39.429688 C 8.480469 40 8.375 40.5 8.375 40.546875 C 8.375 40.609375 8.449219 40.601562 8.660156 40.507812 C 9.382812 40.1875 10.015625 40.203125 10.242188 40.546875 C 10.453125 40.875 10.34375 41.710938 10 42.398438 C 9.820312 42.757812 9.289062 43.316406 8.996094 43.449219 C 8.617188 43.621094 7.414062 43.625 7.203125 43.449219 Z M 8.847656 43.039062 C 9.171875 42.804688 9.539062 42.023438 9.640625 41.335938 C 9.742188 40.644531 9.289062 40.507812 8.558594 41.007812 C 8.40625 41.117188 8.28125 41.273438 8.21875 41.445312 C 8.101562 41.765625 7.859375 42.804688 7.859375 42.988281 C 7.859375 43.261719 8.484375 43.292969 8.847656 43.039062 Z M 11.332031 43.371094 C 11.15625 43.1875 11.140625 43.132812 11.144531 42.703125 C 11.15625 41.601562 11.777344 40.617188 12.636719 40.351562 C 13.066406 40.214844 13.445312 40.257812 13.695312 40.476562 C 13.84375 40.601562 13.871094 40.679688 13.871094 40.945312 C 13.871094 41.617188 13.261719 42.125 12.382812 42.1875 C 12.128906 42.207031 11.898438 42.253906 11.875 42.292969 C 11.800781 42.40625 11.8125 42.78125 11.898438 42.9375 C 12.0625 43.25 12.292969 43.257812 12.851562 42.96875 C 13.195312 42.789062 13.269531 42.773438 13.320312 42.855469 C 13.4375 43.039062 13.382812 43.09375 12.875 43.332031 C 12.457031 43.53125 12.296875 43.570312 11.945312 43.570312 C 11.558594 43.570312 11.507812 43.554688 11.332031 43.371094 Z M 12.496094 41.804688 C 13.046875 41.652344 13.414062 41.0625 13.132812 40.777344 C 12.953125 40.597656 12.789062 40.601562 12.554688 40.796875 C 12.375 40.953125 12.078125 41.4375 11.988281 41.730469 C 11.953125 41.851562 11.96875 41.875 12.09375 41.875 C 12.179688 41.875 12.359375 41.84375 12.496094 41.804688 Z M 14.683594 43.546875 C 14.683594 43.539062 14.800781 43.03125 14.945312 42.425781 C 15.085938 41.820312 15.203125 41.195312 15.203125 41.039062 L 15.203125 40.753906 L 14.945312 40.796875 C 14.714844 40.832031 14.683594 40.820312 14.683594 40.707031 C 14.683594 40.5625 14.894531 40.453125 15.421875 40.320312 C 15.78125 40.234375 15.921875 40.296875 15.921875 40.546875 L 15.921875 40.703125 L 16.148438 40.546875 C 16.554688 40.265625 16.804688 40.21875 17.101562 40.351562 C 17.242188 40.414062 17.34375 40.5 17.335938 40.539062 C 17.15625 41.160156 17.058594 41.355469 16.914062 41.355469 C 16.789062 41.355469 16.765625 41.320312 16.765625 41.136719 C 16.765625 40.664062 16.351562 40.65625 16.054688 41.132812 C 15.867188 41.421875 15.679688 42.09375 15.523438 42.976562 C 15.476562 43.238281 15.410156 43.460938 15.371094 43.472656 C 15.257812 43.507812 14.683594 43.570312 14.683594 43.546875 Z M 17.945312 43.484375 C 17.875 43.398438 17.914062 43.164062 18.285156 41.46875 L 18.4375 40.769531 L 18.21875 40.769531 C 18.101562 40.769531 18 40.753906 18 40.734375 C 18 40.632812 18.148438 40.445312 18.226562 40.445312 C 18.382812 40.445312 18.6875 40.136719 18.816406 39.84375 C 18.960938 39.523438 19.015625 39.46875 19.226562 39.46875 C 19.367188 39.46875 19.378906 39.488281 19.339844 39.679688 C 19.316406 39.796875 19.28125 40 19.257812 40.132812 L 19.21875 40.378906 L 19.519531 40.378906 C 19.828125 40.378906 19.875 40.429688 19.78125 40.664062 C 19.753906 40.742188 19.65625 40.769531 19.429688 40.769531 C 19.070312 40.769531 19.128906 40.640625 18.839844 42.066406 C 18.628906 43.113281 18.640625 43.210938 18.992188 43.109375 C 19.289062 43.023438 19.3125 43.03125 19.289062 43.195312 C 19.273438 43.304688 19.1875 43.367188 18.945312 43.453125 C 18.546875 43.585938 18.042969 43.601562 17.945312 43.484375 Z M 20.570312 43.398438 C 20.09375 42.886719 20.4375 41.421875 21.195312 40.742188 C 21.503906 40.460938 21.984375 40.25 22.304688 40.25 C 22.5 40.25 22.945312 40.453125 23.007812 40.578125 C 23.113281 40.773438 23.078125 41.242188 22.945312 41.460938 C 22.671875 41.914062 22.082031 42.203125 21.4375 42.203125 L 21.054688 42.203125 L 21.054688 42.546875 C 21.054688 43.210938 21.335938 43.328125 22.0625 42.96875 C 22.292969 42.859375 22.496094 42.773438 22.511719 42.789062 C 22.527344 42.808594 22.546875 42.878906 22.5625 42.953125 C 22.578125 43.054688 22.492188 43.128906 22.101562 43.328125 C 21.6875 43.539062 21.5625 43.570312 21.171875 43.570312 C 20.773438 43.570312 20.707031 43.550781 20.570312 43.398438 Z M 21.710938 41.804688 C 22.054688 41.6875 22.296875 41.488281 22.402344 41.238281 C 22.488281 41.03125 22.484375 40.996094 22.371094 40.84375 C 22.195312 40.601562 22.015625 40.601562 21.75 40.835938 C 21.539062 41.015625 21.1875 41.632812 21.1875 41.808594 C 21.1875 41.898438 21.4375 41.898438 21.710938 41.804688 Z M 46.132812 43.527344 C 46.039062 43.4375 46.101562 43.050781 46.414062 41.722656 C 46.835938 39.914062 47.0625 38.851562 47.0625 38.679688 C 47.0625 38.554688 47.039062 38.542969 46.835938 38.578125 C 46.628906 38.609375 46.609375 38.597656 46.609375 38.457031 C 46.609375 38.292969 46.773438 38.21875 47.417969 38.097656 C 47.75 38.03125 47.84375 38.078125 47.84375 38.289062 C 47.84375 38.390625 47.625 39.417969 47.359375 40.578125 C 47.089844 41.742188 46.867188 42.789062 46.867188 42.914062 L 46.867188 43.132812 L 47.164062 43.09375 C 47.445312 43.054688 47.460938 43.058594 47.441406 43.195312 C 47.425781 43.304688 47.339844 43.363281 47.0625 43.449219 C 46.699219 43.5625 46.210938 43.605469 46.132812 43.527344 Z M 48.585938 43.492188 C 48.503906 43.359375 48.546875 43.078125 48.828125 41.992188 C 48.96875 41.421875 49.078125 40.910156 49.0625 40.847656 C 49.039062 40.730469 49.023438 40.726562 48.738281 40.796875 C 48.585938 40.828125 48.558594 40.816406 48.558594 40.703125 C 48.558594 40.546875 48.835938 40.410156 49.34375 40.3125 C 49.703125 40.242188 49.859375 40.28125 49.859375 40.429688 C 49.859375 40.484375 49.726562 41.085938 49.566406 41.761719 C 49.40625 42.4375 49.289062 43.023438 49.3125 43.0625 C 49.339844 43.101562 49.46875 43.113281 49.644531 43.089844 C 49.914062 43.054688 49.929688 43.058594 49.914062 43.195312 C 49.898438 43.304688 49.8125 43.363281 49.535156 43.449219 C 49.109375 43.582031 48.652344 43.601562 48.585938 43.492188 Z M 50.984375 43.460938 C 50.960938 43.402344 50.976562 43.1875 51.023438 42.992188 C 51.167969 42.332031 51.484375 40.828125 51.484375 40.800781 C 51.484375 40.78125 51.394531 40.769531 51.285156 40.769531 C 51.003906 40.769531 51.054688 40.585938 51.390625 40.414062 C 51.585938 40.3125 51.699219 40.183594 51.863281 39.875 C 52.046875 39.523438 52.101562 39.46875 52.261719 39.46875 L 52.445312 39.46875 L 52.359375 39.875 C 52.308594 40.097656 52.269531 40.304688 52.265625 40.328125 C 52.265625 40.359375 52.414062 40.378906 52.589844 40.378906 C 52.929688 40.378906 52.9375 40.386719 52.875 40.625 C 52.839844 40.75 52.792969 40.769531 52.5 40.769531 L 52.164062 40.769531 L 51.945312 41.867188 C 51.824219 42.472656 51.742188 43.015625 51.765625 43.070312 C 51.796875 43.152344 51.84375 43.160156 52.015625 43.109375 C 52.316406 43.023438 52.328125 43.03125 52.328125 43.203125 C 52.328125 43.335938 52.277344 43.375 51.953125 43.460938 C 51.449219 43.605469 51.039062 43.601562 50.984375 43.460938 Z M 53.664062 43.421875 C 53.5 43.28125 53.472656 43.207031 53.449219 42.84375 C 53.398438 42.023438 53.773438 41.097656 54.328125 40.671875 C 54.941406 40.203125 55.613281 40.140625 55.992188 40.515625 C 56.164062 40.691406 56.179688 40.742188 56.152344 41.035156 C 56.089844 41.679688 55.472656 42.148438 54.628906 42.195312 C 54.101562 42.21875 54.046875 42.28125 54.148438 42.742188 C 54.257812 43.242188 54.464844 43.292969 55.117188 42.984375 C 55.546875 42.78125 55.648438 42.78125 55.648438 42.984375 C 55.648438 43.195312 54.867188 43.527344 54.308594 43.558594 C 53.894531 43.578125 53.828125 43.570312 53.664062 43.421875 Z M 55.0625 41.679688 C 55.464844 41.476562 55.640625 41.015625 55.40625 40.757812 C 55.117188 40.4375 54.578125 40.859375 54.3125 41.617188 L 54.214844 41.894531 L 54.507812 41.851562 C 54.671875 41.832031 54.917969 41.753906 55.0625 41.679688 Z M 70.601562 43.546875 C 70.601562 43.539062 70.71875 43.03125 70.859375 42.425781 C 71.003906 41.820312 71.121094 41.195312 71.121094 41.039062 L 71.121094 40.753906 L 70.859375 40.796875 C 70.632812 40.832031 70.601562 40.820312 70.601562 40.707031 C 70.601562 40.546875 70.71875 40.484375 71.242188 40.351562 C 71.703125 40.230469 71.835938 40.273438 71.835938 40.546875 L 71.835938 40.703125 L 72.070312 40.546875 C 72.472656 40.269531 72.71875 40.21875 73.015625 40.351562 C 73.152344 40.414062 73.265625 40.484375 73.265625 40.503906 C 73.265625 40.523438 73.203125 40.726562 73.121094 40.949219 C 73 41.285156 72.949219 41.355469 72.828125 41.355469 C 72.703125 41.355469 72.679688 41.320312 72.679688 41.136719 C 72.679688 40.691406 72.300781 40.65625 72.015625 41.078125 C 71.796875 41.398438 71.6875 41.742188 71.507812 42.65625 C 71.429688 43.070312 71.34375 43.425781 71.324219 43.445312 C 71.285156 43.488281 70.601562 43.578125 70.601562 43.546875 Z M 78.101562 43.46875 C 78.046875 43.328125 78.109375 42.929688 78.359375 41.78125 L 78.570312 40.804688 L 78.390625 40.78125 C 78.171875 40.757812 78.136719 40.539062 78.335938 40.476562 C 78.570312 40.40625 78.832031 40.132812 78.960938 39.84375 C 79.101562 39.523438 79.15625 39.46875 79.371094 39.46875 C 79.507812 39.46875 79.523438 39.488281 79.484375 39.679688 C 79.460938 39.796875 79.421875 40 79.398438 40.132812 L 79.359375 40.378906 L 79.664062 40.378906 C 79.96875 40.378906 80.015625 40.429688 79.921875 40.664062 C 79.898438 40.742188 79.796875 40.769531 79.574219 40.769531 C 79.210938 40.769531 79.273438 40.640625 78.984375 42.066406 C 78.773438 43.113281 78.785156 43.210938 79.140625 43.109375 C 79.429688 43.023438 79.453125 43.03125 79.429688 43.195312 C 79.414062 43.304688 79.332031 43.367188 79.085938 43.453125 C 78.65625 43.59375 78.152344 43.601562 78.101562 43.46875 Z M 80.726562 43.402344 C 80.230469 42.90625 80.570312 41.429688 81.335938 40.742188 C 81.648438 40.460938 82.128906 40.25 82.445312 40.25 C 82.644531 40.25 83.085938 40.453125 83.152344 40.578125 C 83.257812 40.773438 83.226562 41.242188 83.089844 41.460938 C 82.8125 41.914062 82.226562 42.203125 81.574219 42.203125 L 81.183594 42.203125 L 81.210938 42.601562 C 81.257812 43.234375 81.492188 43.320312 82.203125 42.96875 C 82.4375 42.859375 82.640625 42.773438 82.65625 42.789062 C 82.671875 42.808594 82.695312 42.878906 82.703125 42.953125 C 82.722656 43.054688 82.632812 43.128906 82.246094 43.328125 C 81.835938 43.539062 81.703125 43.570312 81.328125 43.570312 C 80.945312 43.570312 80.871094 43.546875 80.726562 43.402344 Z M 82.085938 41.703125 C 82.539062 41.476562 82.746094 40.953125 82.460938 40.738281 C 82.273438 40.59375 82.136719 40.617188 81.886719 40.839844 C 81.679688 41.023438 81.328125 41.632812 81.328125 41.816406 C 81.328125 41.921875 81.78125 41.859375 82.085938 41.703125 Z M 84.0625 43.515625 C 84.0625 43.484375 84.179688 42.960938 84.324219 42.339844 C 84.46875 41.722656 84.578125 41.125 84.570312 41.007812 C 84.546875 40.8125 84.53125 40.804688 84.3125 40.816406 C 84.125 40.828125 84.066406 40.804688 84.039062 40.703125 C 84.015625 40.601562 84.070312 40.554688 84.34375 40.453125 C 84.527344 40.386719 84.789062 40.3125 84.921875 40.289062 C 85.171875 40.242188 85.171875 40.238281 85.328125 40.621094 C 85.328125 40.625 85.503906 40.546875 85.710938 40.441406 C 86.164062 40.214844 86.234375 40.210938 86.507812 40.375 L 86.714844 40.5 L 86.574219 40.925781 C 86.457031 41.28125 86.40625 41.351562 86.289062 41.351562 C 86.164062 41.355469 86.140625 41.320312 86.140625 41.140625 C 86.140625 40.574219 85.601562 40.6875 85.304688 41.3125 C 85.234375 41.472656 85.085938 42.015625 84.980469 42.523438 C 84.875 43.03125 84.777344 43.457031 84.765625 43.46875 C 84.710938 43.515625 84.0625 43.558594 84.0625 43.515625 Z M 87.3125 43.515625 C 87.3125 43.484375 87.414062 43.054688 87.542969 42.554688 C 87.679688 42.011719 87.78125 41.46875 87.789062 41.195312 L 87.796875 40.738281 L 87.5625 40.757812 C 87.375 40.769531 87.320312 40.75 87.296875 40.648438 C 87.269531 40.550781 87.324219 40.507812 87.59375 40.425781 C 88.1875 40.246094 88.328125 40.234375 88.441406 40.347656 C 88.5 40.40625 88.546875 40.523438 88.546875 40.609375 C 88.546875 40.699219 88.558594 40.769531 88.570312 40.769531 C 88.585938 40.769531 88.78125 40.683594 89 40.578125 C 89.523438 40.328125 90.21875 40.203125 90.429688 40.3125 C 90.5625 40.382812 90.570312 40.421875 90.53125 40.71875 C 90.507812 40.898438 90.40625 41.40625 90.300781 41.835938 C 90.195312 42.273438 90.101562 42.726562 90.09375 42.851562 C 90.074219 43.082031 90.074219 43.082031 90.347656 43.078125 C 90.535156 43.070312 90.632812 43.101562 90.65625 43.167969 C 90.710938 43.304688 90.648438 43.347656 90.242188 43.46875 C 89.78125 43.601562 89.351562 43.601562 89.304688 43.46875 C 89.28125 43.414062 89.378906 42.84375 89.523438 42.207031 C 89.808594 40.929688 89.824219 40.78125 89.6875 40.730469 C 89.546875 40.675781 89.050781 40.921875 88.753906 41.1875 C 88.507812 41.410156 88.476562 41.476562 88.328125 42.125 C 88.242188 42.507812 88.148438 42.960938 88.121094 43.132812 C 88.09375 43.308594 88.042969 43.460938 88 43.472656 C 87.804688 43.53125 87.3125 43.5625 87.3125 43.515625 Z M 91.773438 43.460938 C 91.75 43.40625 91.867188 42.804688 92.03125 42.125 C 92.195312 41.445312 92.3125 40.851562 92.292969 40.800781 C 92.265625 40.734375 92.210938 40.726562 92.046875 40.773438 C 91.929688 40.804688 91.824219 40.835938 91.8125 40.835938 C 91.804688 40.835938 91.796875 40.765625 91.796875 40.683594 C 91.796875 40.558594 91.855469 40.515625 92.140625 40.429688 C 92.910156 40.195312 93.148438 40.234375 93.070312 40.585938 C 93.050781 40.667969 92.914062 41.234375 92.773438 41.839844 C 92.625 42.445312 92.523438 42.984375 92.546875 43.039062 C 92.570312 43.109375 92.648438 43.121094 92.875 43.09375 C 93.15625 43.054688 93.171875 43.058594 93.148438 43.195312 C 93.109375 43.472656 91.867188 43.714844 91.773438 43.460938 Z M 94.226562 43.464844 C 94.179688 43.351562 94.234375 43.039062 94.484375 41.910156 C 94.765625 40.660156 94.765625 40.769531 94.53125 40.769531 C 94.242188 40.769531 94.289062 40.589844 94.625 40.414062 C 94.8125 40.316406 94.929688 40.179688 95.085938 39.890625 C 95.25 39.570312 95.320312 39.496094 95.46875 39.476562 C 95.667969 39.453125 95.671875 39.472656 95.53125 40.167969 L 95.488281 40.378906 L 95.828125 40.378906 C 96.109375 40.378906 96.164062 40.398438 96.128906 40.484375 C 96.109375 40.539062 96.085938 40.625 96.085938 40.679688 C 96.085938 40.746094 96 40.769531 95.742188 40.769531 L 95.390625 40.769531 L 95.175781 41.867188 C 95.054688 42.46875 94.976562 43.007812 95 43.066406 C 95.035156 43.152344 95.078125 43.160156 95.257812 43.109375 C 95.554688 43.023438 95.570312 43.03125 95.570312 43.203125 C 95.570312 43.335938 95.515625 43.375 95.191406 43.460938 C 94.691406 43.601562 94.277344 43.601562 94.226562 43.464844 Z M 96.898438 43.421875 C 96.710938 43.257812 96.707031 43.242188 96.707031 42.609375 C 96.707031 42 96.71875 41.945312 96.953125 41.46875 C 97.242188 40.890625 97.570312 40.570312 98.101562 40.375 C 99.023438 40.03125 99.6875 40.617188 99.273438 41.417969 C 99.046875 41.871094 98.429688 42.199219 97.804688 42.203125 C 97.425781 42.203125 97.398438 42.210938 97.359375 42.375 C 97.304688 42.589844 97.375 42.917969 97.503906 43.0625 C 97.652344 43.234375 97.90625 43.203125 98.359375 42.96875 C 98.695312 42.796875 98.773438 42.777344 98.820312 42.859375 C 98.9375 43.039062 98.882812 43.109375 98.445312 43.320312 C 98.109375 43.484375 97.898438 43.539062 97.546875 43.558594 C 97.128906 43.578125 97.070312 43.570312 96.898438 43.421875 Z M 98.3125 41.664062 C 98.75 41.421875 98.898438 40.929688 98.59375 40.734375 C 98.476562 40.65625 98.390625 40.640625 98.25 40.6875 C 98.023438 40.765625 97.695312 41.1875 97.5625 41.585938 L 97.457031 41.894531 L 97.753906 41.851562 C 97.917969 41.828125 98.171875 41.746094 98.3125 41.664062 Z M 0.00390625 43.390625 C 0.015625 43.328125 0.0820312 43.265625 0.152344 43.253906 C 0.34375 43.21875 0.515625 43.046875 0.648438 42.753906 C 0.820312 42.359375 1.359375 39.640625 1.375 39.078125 C 1.390625 38.601562 1.386719 38.59375 1.179688 38.460938 C 0.773438 38.203125 0.882812 38.164062 2.007812 38.164062 C 2.894531 38.164062 3.046875 38.179688 3.046875 38.265625 C 3.046875 38.320312 2.964844 38.378906 2.851562 38.402344 C 2.433594 38.484375 2.277344 38.898438 1.882812 40.914062 C 1.519531 42.796875 1.523438 42.761719 1.6875 42.925781 C 1.8125 43.050781 1.882812 43.0625 2.386719 43.035156 C 3.070312 43 3.3125 42.886719 3.554688 42.492188 C 3.742188 42.179688 3.75 42.175781 3.882812 42.261719 C 3.957031 42.308594 3.953125 42.367188 3.867188 42.632812 C 3.804688 42.808594 3.695312 43.070312 3.609375 43.210938 L 3.464844 43.472656 L 1.722656 43.492188 C 0.09375 43.507812 -0.0195312 43.5 0.00390625 43.390625 Z M 32.890625 43.414062 C 32.890625 43.359375 33 43.265625 33.132812 43.203125 C 33.304688 43.117188 33.421875 42.992188 33.519531 42.789062 C 33.707031 42.40625 34.269531 39.632812 34.28125 39.046875 C 34.289062 38.605469 34.28125 38.59375 34.078125 38.460938 C 33.640625 38.183594 33.742188 38.164062 35.722656 38.164062 C 37.539062 38.164062 37.578125 38.167969 37.539062 38.292969 C 37.515625 38.363281 37.460938 38.617188 37.417969 38.863281 C 37.351562 39.238281 37.3125 39.308594 37.195312 39.328125 C 37.078125 39.34375 37.050781 39.3125 37.050781 39.171875 C 37.050781 38.742188 36.796875 38.621094 35.882812 38.621094 L 35.257812 38.621094 L 35.074219 39.453125 C 34.976562 39.90625 34.882812 40.332031 34.863281 40.394531 C 34.835938 40.5 34.890625 40.507812 35.40625 40.507812 C 36.054688 40.507812 36.242188 40.4375 36.433594 40.132812 C 36.601562 39.867188 36.820312 39.84375 36.773438 40.101562 C 36.75 40.203125 36.683594 40.554688 36.621094 40.882812 C 36.53125 41.359375 36.484375 41.484375 36.398438 41.484375 C 36.328125 41.484375 36.273438 41.414062 36.25 41.296875 C 36.226562 41.1875 36.144531 41.066406 36.0625 41.023438 C 35.90625 40.9375 34.882812 40.898438 34.808594 40.976562 C 34.765625 41.019531 34.570312 41.960938 34.488281 42.539062 C 34.445312 42.820312 34.457031 42.855469 34.609375 42.953125 C 34.742188 43.042969 34.890625 43.058594 35.34375 43.039062 C 36.023438 43 36.265625 42.894531 36.542969 42.5 C 36.664062 42.328125 36.78125 42.226562 36.832031 42.25 C 36.960938 42.296875 36.945312 42.414062 36.75 42.871094 C 36.46875 43.554688 36.628906 43.507812 34.632812 43.507812 C 33.171875 43.507812 32.890625 43.492188 32.890625 43.414062 Z M 65.921875 43.414062 C 65.921875 43.359375 66.015625 43.289062 66.132812 43.25 C 66.539062 43.109375 66.679688 42.734375 67.085938 40.628906 C 67.441406 38.8125 67.433594 38.523438 67.023438 38.390625 C 66.945312 38.367188 66.898438 38.3125 66.914062 38.273438 C 66.929688 38.21875 67.4375 38.195312 68.742188 38.179688 C 70.515625 38.164062 70.546875 38.164062 70.503906 38.292969 C 70.484375 38.363281 70.429688 38.617188 70.382812 38.863281 C 70.3125 39.238281 70.28125 39.308594 70.15625 39.328125 C 70.039062 39.34375 70.015625 39.3125 70.015625 39.148438 C 70.015625 38.734375 69.699219 38.601562 68.816406 38.632812 L 68.300781 38.65625 L 68.121094 39.5 C 68.023438 39.964844 67.9375 40.382812 67.9375 40.429688 C 67.933594 40.546875 68.929688 40.539062 69.164062 40.414062 C 69.265625 40.363281 69.382812 40.230469 69.429688 40.121094 C 69.480469 40 69.558594 39.921875 69.632812 39.921875 C 69.785156 39.921875 69.785156 39.875 69.617188 40.753906 C 69.496094 41.367188 69.453125 41.484375 69.355469 41.484375 C 69.28125 41.484375 69.234375 41.4375 69.234375 41.367188 C 69.234375 41.0625 68.625 40.835938 68.066406 40.929688 L 67.820312 40.976562 L 67.6875 41.703125 C 67.453125 42.984375 67.460938 43.101562 67.816406 43.25 C 68.203125 43.410156 67.980469 43.472656 66.9375 43.492188 C 66.085938 43.507812 65.921875 43.492188 65.921875 43.414062 Z M 27.78125 42.015625 C 27.488281 41.882812 27.234375 41.472656 27.234375 41.140625 C 27.234375 40.621094 27.6875 40.15625 28.199219 40.160156 C 28.804688 40.164062 29.183594 40.535156 29.183594 41.132812 C 29.183594 41.898438 28.484375 42.335938 27.78125 42.015625 Z M 60.875 42.042969 C 60.761719 41.996094 60.585938 41.84375 60.484375 41.710938 C 60.335938 41.515625 60.300781 41.40625 60.304688 41.132812 C 60.3125 40.53125 60.6875 40.164062 61.28125 40.164062 C 61.578125 40.164062 61.671875 40.195312 61.875 40.359375 C 62.324219 40.71875 62.390625 41.328125 62.035156 41.753906 C 61.734375 42.109375 61.285156 42.226562 60.875 42.042969 Z M 22 39.726562 C 21.875 39.585938 21.863281 39.601562 22.601562 38.757812 L 22.851562 38.476562 L 23.222656 38.558594 C 23.425781 38.601562 23.59375 38.664062 23.59375 38.6875 C 23.59375 38.726562 22.199219 39.859375 22.148438 39.859375 C 22.128906 39.859375 22.0625 39.800781 22 39.726562 Z M 55.078125 39.726562 L 54.9375 39.609375 L 55.425781 39.050781 C 55.695312 38.742188 55.941406 38.492188 55.972656 38.492188 C 56.132812 38.492188 56.6875 38.648438 56.671875 38.691406 C 56.65625 38.734375 55.445312 39.710938 55.289062 39.804688 C 55.25 39.828125 55.15625 39.792969 55.078125 39.726562 Z M 98.304688 39.730469 L 98.144531 39.609375 L 98.652344 39.050781 C 98.929688 38.742188 99.183594 38.492188 99.210938 38.492188 C 99.34375 38.492188 99.921875 38.648438 99.921875 38.679688 C 99.917969 38.71875 98.691406 39.710938 98.53125 39.804688 C 98.492188 39.828125 98.390625 39.796875 98.304688 39.730469 Z M 5.507812 39.398438 C 5.246094 39.132812 5.503906 38.621094 5.902344 38.621094 C 6.179688 38.621094 6.320312 38.765625 6.320312 39.046875 C 6.320312 39.476562 5.8125 39.699219 5.507812 39.398438 Z M 49.390625 39.441406 C 49.226562 39.320312 49.238281 38.917969 49.40625 38.75 C 49.671875 38.484375 50.1875 38.65625 50.1875 39.015625 C 50.1875 39.40625 49.691406 39.671875 49.390625 39.441406 Z M 92.570312 39.398438 C 92.304688 39.125 92.566406 38.621094 92.976562 38.621094 C 93.382812 38.621094 93.558594 39.078125 93.265625 39.375 C 93.0625 39.574219 92.757812 39.585938 92.570312 39.398438 Z M 35.609375 37.53125 C 35.507812 37.421875 35.53125 37.382812 36 36.871094 L 36.5 36.328125 L 36.875 36.410156 C 37.078125 36.453125 37.242188 36.507812 37.242188 36.53125 C 37.238281 36.59375 35.929688 37.59375 35.816406 37.625 C 35.757812 37.640625 35.664062 37.601562 35.609375 37.53125 Z M 35.609375 37.53125 "/>
<path style=" stroke:none;fill-rule:nonzero;fill:rgb(88.627451%,0.392157%,10.980392%);fill-opacity:1;" d="M 57.226562 33.863281 L 57.375 33.46875 C 57.632812 32.757812 57.898438 32.21875 58.28125 31.625 C 58.691406 30.992188 59.585938 30.070312 59.960938 29.890625 C 60.421875 29.671875 60.992188 29.59375 61.695312 29.65625 C 62.300781 29.710938 64.164062 30.015625 64.914062 30.183594 C 65.484375 30.3125 66.320312 30.324219 66.714844 30.210938 C 67.472656 29.988281 67.921875 29.5625 68.132812 28.859375 C 68.296875 28.320312 68.296875 27.828125 68.132812 27.503906 C 67.90625 27.0625 67.945312 26.949219 68.488281 26.429688 C 68.757812 26.171875 68.976562 25.9375 68.976562 25.902344 C 68.976562 25.726562 68.609375 25.03125 68.511719 25.03125 C 68.453125 25.027344 68.335938 24.96875 68.253906 24.90625 L 68.101562 24.78125 L 68.425781 24.617188 C 68.867188 24.390625 69.195312 24.039062 69.195312 23.792969 C 69.195312 23.6875 69.101562 23.425781 68.984375 23.210938 C 68.769531 22.804688 68.710938 22.414062 68.835938 22.183594 C 68.914062 22.03125 69.054688 21.96875 69.742188 21.769531 C 70.3125 21.601562 70.523438 21.433594 70.605469 21.066406 C 70.675781 20.75 70.640625 20.546875 70.453125 20.171875 C 70.296875 19.867188 69.300781 18.328125 69.007812 17.957031 C 68.617188 17.453125 68.140625 16.585938 68 16.117188 C 67.859375 15.65625 67.859375 15.628906 67.960938 15.03125 C 68.175781 13.773438 68.050781 12.726562 67.441406 10.691406 C 66.988281 9.175781 66.867188 8.808594 66.726562 8.523438 C 66.46875 8.015625 66.5 7.894531 67.03125 7.460938 C 67.28125 7.257812 67.515625 7.035156 67.546875 6.96875 C 67.707031 6.671875 67.53125 6.101562 67.226562 5.9375 C 67.039062 5.835938 66.929688 5.90625 66.734375 6.265625 C 66.589844 6.53125 66.53125 6.585938 66.375 6.585938 C 66.117188 6.585938 66.074219 6.476562 66.238281 6.257812 C 66.429688 6 66.414062 5.953125 66.113281 5.914062 C 65.890625 5.882812 65.773438 5.796875 65.285156 5.300781 C 64.632812 4.636719 64.195312 4.328125 63.320312 3.929688 C 62.921875 3.742188 62.78125 3.65625 62.929688 3.683594 C 63.054688 3.703125 63.496094 3.742188 63.914062 3.757812 C 65.117188 3.820312 65.414062 3.664062 65.695312 2.789062 C 65.882812 2.203125 65.976562 1.929688 65.539062 1.515625 L 63.929688 0 L 100 0 L 100 33.863281 Z M 57.226562 33.863281 "/>
<path style=" stroke:none;fill-rule:nonzero;fill:rgb(0%,19.215686%,53.72549%);fill-opacity:1;" d="M 26.464844 33.863281 C 26.203125 33.835938 25.976562 33.824219 25.960938 33.808594 C 25.933594 33.78125 26.226562 33.589844 27.582031 32.765625 C 28.015625 32.5 28.195312 32.355469 28.132812 32.324219 C 28.085938 32.296875 27.707031 32.257812 27.292969 32.234375 C 26.679688 32.195312 26.5 32.203125 26.320312 32.289062 C 26.195312 32.34375 25.710938 32.492188 25.234375 32.617188 C 24.0625 32.925781 23.664062 33.140625 23.289062 33.660156 L 23.148438 33.863281 L 0 33.863281 L 0 0 L 45.925781 0 L 45.035156 0.582031 C 44.546875 0.828125 43.976562 1.164062 43.773438 1.335938 C 43.070312 1.910156 42.132812 3.21875 41.898438 3.945312 C 41.8125 4.210938 41.734375 4.3125 41.46875 4.492188 C 41.0625 4.769531 40.578125 5.296875 40.179688 5.898438 C 39.632812 6.710938 38.59375 8.546875 38.390625 9.054688 C 38.078125 9.84375 38.101562 10.445312 38.570312 12.808594 C 38.777344 13.847656 39 14.90625 39.0625 15.15625 C 39.132812 15.40625 39.203125 15.828125 39.226562 16.101562 C 39.265625 16.578125 39.296875 16.683594 39.578125 17.273438 C 39.65625 17.433594 39.71875 17.617188 39.71875 17.679688 C 39.71875 17.742188 39.773438 17.828125 39.847656 17.875 C 39.921875 17.921875 39.976562 18.023438 39.976562 18.117188 C 39.976562 18.234375 40.125 18.445312 40.453125 18.804688 C 41.195312 19.625 41.734375 20.390625 41.734375 20.632812 C 41.734375 20.832031 41.441406 20.882812 40.96875 20.765625 C 40.421875 20.632812 39.972656 20.335938 39.28125 19.664062 C 38.984375 19.375 38.742188 19.179688 38.742188 19.234375 C 38.742188 19.28125 38.945312 19.550781 39.191406 19.828125 C 39.683594 20.375 39.757812 20.523438 39.65625 20.722656 C 39.5625 20.898438 39.335938 20.945312 39.03125 20.863281 C 38.675781 20.765625 38.46875 20.898438 38.527344 21.195312 C 38.5625 21.375 38.554688 21.390625 38.453125 21.355469 C 38.25 21.277344 37.8125 21.1875 37.421875 21.148438 C 37.0625 21.109375 37.03125 21.09375 36.8125 20.789062 C 36.648438 20.554688 36.523438 20.449219 36.347656 20.402344 C 35.703125 20.21875 34.097656 19.9375 33.019531 19.820312 C 31.125 19.613281 30.671875 19.59375 29.765625 19.703125 C 29.066406 19.789062 28.875 19.835938 28.492188 20.03125 C 27.820312 20.375 26.648438 21.453125 26.648438 21.730469 C 26.648438 21.859375 26.90625 21.8125 27.203125 21.632812 C 28.09375 21.078125 31.160156 20.292969 32.664062 20.234375 C 33.40625 20.207031 33.367188 20.242188 32.472656 20.402344 C 32.226562 20.445312 31.640625 20.597656 31.171875 20.734375 C 30.703125 20.875 29.898438 21.089844 29.378906 21.210938 C 28.859375 21.335938 28.273438 21.492188 28.078125 21.5625 L 27.71875 21.695312 L 28.273438 21.699219 C 31.089844 21.730469 34.300781 22.625 35.605469 23.746094 C 36.167969 24.226562 36.375 24.285156 37.203125 24.195312 C 38.335938 24.078125 39.800781 23.539062 40.445312 23 C 40.722656 22.765625 40.953125 22.671875 40.953125 22.796875 C 40.953125 23.007812 40.582031 24.152344 40.421875 24.4375 C 40.242188 24.75 40.234375 24.796875 40.328125 24.867188 C 40.382812 24.90625 40.414062 24.960938 40.394531 24.976562 C 40.375 25 40.417969 25.03125 40.492188 25.058594 C 40.703125 25.125 40.652344 25.191406 40.3125 25.28125 C 39.980469 25.363281 39.71875 25.515625 39.71875 25.617188 C 39.71875 25.648438 39.765625 25.679688 39.820312 25.679688 C 39.984375 25.679688 39.859375 25.796875 39.640625 25.84375 C 39.492188 25.875 39.460938 25.902344 39.53125 25.945312 C 39.59375 25.984375 39.597656 26 39.539062 26.003906 C 39.492188 26.003906 39.457031 26.070312 39.457031 26.148438 C 39.457031 26.25 39.398438 26.328125 39.261719 26.382812 C 38.9375 26.53125 39.027344 26.609375 39.472656 26.5625 C 39.695312 26.546875 39.835938 26.546875 39.78125 26.566406 C 39.726562 26.585938 39.363281 26.75 38.96875 26.933594 C 38.578125 27.117188 38.0625 27.332031 37.832031 27.414062 C 37.570312 27.507812 37.398438 27.601562 37.386719 27.671875 C 37.363281 27.78125 37.484375 27.777344 37.792969 27.65625 C 37.851562 27.636719 37.898438 27.644531 37.894531 27.675781 C 37.894531 27.703125 37.21875 28.097656 36.390625 28.546875 C 35.5625 28.992188 34.789062 29.453125 34.671875 29.570312 C 34.554688 29.6875 34.398438 29.78125 34.335938 29.78125 C 34.265625 29.78125 34.179688 29.859375 34.136719 29.949219 C 34.007812 30.226562 34.035156 30.261719 34.335938 30.210938 C 34.785156 30.132812 34.988281 30.136719 35.019531 30.222656 C 35.035156 30.273438 34.992188 30.304688 34.921875 30.304688 C 34.851562 30.304688 34.757812 30.347656 34.714844 30.398438 C 34.671875 30.453125 34.558594 30.5 34.460938 30.515625 C 34.351562 30.523438 34.242188 30.609375 34.15625 30.742188 C 34.085938 30.855469 33.96875 30.960938 33.898438 30.980469 C 33.828125 31 33.929688 31 34.125 30.988281 C 37.050781 30.769531 37.59375 30.664062 38.773438 30.0625 C 39.78125 29.550781 40.828125 28.792969 41.570312 28.03125 C 41.78125 27.8125 41.976562 27.632812 42.007812 27.632812 C 42.109375 27.632812 42.054688 28 41.90625 28.320312 C 41.648438 28.875 41.101562 29.386719 39.992188 30.125 C 39.429688 30.5 38.824219 30.851562 38.644531 30.910156 C 38.085938 31.085938 37.183594 31.273438 36.238281 31.410156 C 33.15625 31.859375 31.980469 32.195312 30.8125 32.96875 C 30.617188 33.097656 30.414062 33.195312 30.355469 33.1875 C 30.300781 33.179688 30.15625 33.257812 30.03125 33.363281 C 29.679688 33.664062 29.929688 33.613281 30.660156 33.238281 C 31.40625 32.851562 31.757812 32.789062 31.167969 33.148438 C 30.445312 33.585938 29.898438 33.863281 29.359375 33.863281 Z M 22.640625 30.085938 C 22.757812 30.039062 23.140625 29.820312 23.5 29.601562 C 23.851562 29.386719 24.277344 29.148438 24.4375 29.078125 C 24.601562 29.003906 25.054688 28.796875 25.445312 28.621094 C 26.269531 28.25 27.480469 27.898438 27.546875 28.007812 C 27.574219 28.046875 27.753906 28.09375 27.953125 28.109375 C 28.226562 28.125 28.273438 28.140625 28.160156 28.183594 C 28.078125 28.210938 28.015625 28.261719 28.015625 28.292969 C 28.015625 28.410156 28.625 28.375 28.878906 28.242188 C 28.976562 28.1875 29.203125 28.132812 29.382812 28.109375 C 29.601562 28.085938 29.703125 28.039062 29.703125 27.976562 C 29.703125 27.902344 29.757812 27.890625 29.960938 27.925781 C 30.234375 27.972656 30.820312 27.859375 32.402344 27.460938 C 33.476562 27.195312 34.289062 26.921875 35 26.59375 L 35.515625 26.359375 L 35 26.027344 C 33.742188 25.21875 32.476562 24.722656 29.703125 23.949219 C 29.21875 23.8125 28.796875 23.671875 28.761719 23.640625 C 28.71875 23.59375 28.742188 23.589844 28.828125 23.621094 C 29.101562 23.71875 29.3125 23.738281 29.3125 23.664062 C 29.3125 23.570312 29.105469 23.492188 28.695312 23.433594 C 28.316406 23.382812 28.074219 23.269531 28.335938 23.265625 C 28.742188 23.265625 28.046875 23.007812 27.265625 22.875 C 26.6875 22.773438 26.65625 22.75 26.898438 22.632812 C 27.109375 22.53125 27.332031 22.148438 27.273438 21.992188 C 27.222656 21.859375 27.160156 21.875 26.847656 22.085938 C 26.25 22.488281 25.695312 23.148438 25.386719 23.84375 C 25.210938 24.234375 25.269531 24.273438 26.179688 24.3125 C 26.925781 24.34375 26.9375 24.34375 26.746094 24.445312 C 26.640625 24.507812 26.421875 24.570312 26.265625 24.59375 C 25.738281 24.679688 25.445312 24.929688 25.707031 25.078125 C 25.785156 25.117188 25.753906 25.15625 25.5625 25.25 C 25.351562 25.351562 25.335938 25.371094 25.4375 25.429688 C 25.5 25.464844 25.6875 25.484375 25.851562 25.46875 C 26.078125 25.453125 26.183594 25.476562 26.296875 25.578125 L 26.4375 25.703125 L 26.148438 25.886719 C 25.992188 25.988281 25.8125 26.164062 25.75 26.28125 C 25.6875 26.394531 25.472656 26.667969 25.265625 26.886719 C 25.0625 27.109375 24.890625 27.335938 24.890625 27.390625 C 24.890625 27.449219 24.59375 27.734375 24.226562 28.03125 C 23.242188 28.820312 22.8125 29.257812 22.8125 29.464844 C 22.8125 29.578125 22.757812 29.675781 22.65625 29.738281 C 22.351562 29.941406 22.191406 30.171875 22.359375 30.171875 C 22.398438 30.171875 22.523438 30.132812 22.640625 30.085938 Z M 30.242188 29.324219 C 30.488281 29.289062 30.773438 29.21875 30.871094 29.15625 L 31.054688 29.046875 L 30.429688 28.734375 L 30.117188 28.859375 C 29.945312 28.929688 29.703125 29.023438 29.585938 29.070312 C 29.105469 29.25 29.042969 29.496094 29.492188 29.429688 C 29.664062 29.40625 30 29.359375 30.242188 29.324219 Z M 19.234375 26.359375 C 20.6875 24.84375 21.707031 23.941406 23.007812 23.039062 C 23.445312 22.734375 23.757812 22.554688 23.773438 22.601562 C 23.8125 22.730469 24.003906 22.695312 24.3125 22.496094 C 24.664062 22.273438 24.84375 22.046875 25.28125 21.246094 C 25.742188 20.417969 25.914062 20.210938 26.574219 19.703125 C 26.882812 19.460938 27.335938 19.109375 27.585938 18.910156 C 27.941406 18.625 28.027344 18.582031 28 18.695312 C 27.976562 18.78125 27.992188 18.835938 28.039062 18.835938 C 28.1875 18.835938 28.882812 18.539062 28.90625 18.464844 C 28.945312 18.351562 28.238281 18.230469 27.714844 18.265625 C 27.3125 18.289062 27.171875 18.335938 26.671875 18.605469 C 25.5 19.242188 24.65625 19.921875 23.039062 21.539062 C 21.878906 22.703125 20.960938 23.484375 20.5 23.703125 C 20.351562 23.777344 20.234375 23.929688 20.054688 24.300781 C 19.695312 25.023438 19.0625 26.058594 18.460938 26.902344 C 17.890625 27.695312 17.769531 27.972656 18.210938 27.460938 C 18.363281 27.289062 18.824219 26.789062 19.234375 26.359375 Z M 33.734375 33.492188 C 35.476562 33.125 35.667969 33.101562 36.890625 33.046875 C 38.257812 32.984375 38.4375 32.953125 39.257812 32.5625 C 39.523438 32.4375 39.625 32.414062 39.664062 32.476562 C 39.726562 32.578125 40.175781 32.332031 41.050781 31.71875 C 41.40625 31.46875 41.914062 31.144531 42.171875 31.003906 C 42.566406 30.789062 42.6875 30.753906 42.875 30.789062 C 43.078125 30.828125 43.136719 30.804688 43.394531 30.578125 C 44.109375 29.945312 44.71875 29.65625 45.328125 29.65625 C 45.507812 29.65625 45.570312 29.679688 45.570312 29.757812 C 45.570312 29.824219 45.605469 29.851562 45.664062 29.828125 C 45.847656 29.757812 45.765625 29.835938 45.296875 30.179688 C 44.757812 30.582031 44.8125 30.703125 45.359375 30.320312 C 45.890625 29.953125 45.894531 29.953125 45.894531 30.101562 C 45.894531 30.1875 45.695312 30.398438 45.328125 30.710938 C 44.484375 31.410156 43.890625 31.992188 42.984375 32.992188 L 42.179688 33.863281 L 31.882812 33.863281 Z M 33.75 20.226562 C 33.8125 20.210938 33.914062 20.210938 33.976562 20.226562 C 34.039062 20.242188 33.992188 20.253906 33.867188 20.253906 C 33.742188 20.253906 33.6875 20.242188 33.75 20.226562 Z M 33.75 20.226562 "/>
<path style=" stroke:none;fill-rule:nonzero;fill:rgb(49.803922%,49.803922%,49.803922%);fill-opacity:1;" d="M 64.082031 17.746094 C 63.796875 17.703125 63.945312 17.597656 64.289062 17.597656 C 64.632812 17.597656 64.8125 17.464844 64.8125 17.210938 C 64.8125 17.09375 64.789062 17.078125 64.679688 17.109375 C 64.585938 17.140625 64.515625 17.117188 64.453125 17.027344 C 64.394531 16.945312 64.253906 16.882812 64.046875 16.855469 C 63.675781 16.804688 63.074219 16.445312 63.183594 16.339844 C 63.21875 16.304688 63.410156 16.257812 63.609375 16.242188 C 63.945312 16.214844 63.96875 16.203125 64.039062 15.992188 C 64.085938 15.835938 64.160156 15.761719 64.28125 15.734375 C 64.378906 15.710938 64.53125 15.625 64.617188 15.539062 C 64.710938 15.460938 65 15.25 65.269531 15.070312 C 65.71875 14.777344 66 14.460938 65.898438 14.363281 C 65.796875 14.257812 64.820312 14.140625 64.359375 14.179688 C 63.828125 14.226562 62.90625 14.421875 62.523438 14.570312 C 62.128906 14.722656 62.242188 14.589844 62.785156 14.265625 C 63.515625 13.832031 64.925781 13.429688 65.703125 13.429688 C 66.007812 13.429688 67.019531 13.664062 67.140625 13.765625 C 67.375 13.960938 67.117188 14.648438 66.679688 14.992188 L 66.5 15.136719 L 66.648438 15.296875 L 66.796875 15.460938 L 66.644531 15.585938 C 66.5625 15.652344 66.445312 15.710938 66.386719 15.710938 C 66.328125 15.710938 66.1875 15.800781 66.074219 15.914062 C 65.898438 16.085938 65.875 16.140625 65.925781 16.273438 C 65.964844 16.378906 65.960938 16.480469 65.914062 16.570312 C 65.867188 16.648438 65.859375 16.835938 65.882812 17.046875 C 65.9375 17.484375 65.859375 17.636719 65.546875 17.726562 C 65.3125 17.789062 64.453125 17.804688 64.082031 17.746094 Z M 64.082031 17.746094 "/>
</g>
</svg>
